<?xml version="1.0" standalone="no"?>
<!DOCTYPE svg PUBLIC "-//W3C//DTD SVG 20010904//EN"
 "http://www.w3.org/TR/2001/REC-SVG-20010904/DTD/svg10.dtd">
<svg version="1.0" xmlns="http://www.w3.org/2000/svg"
 width="1024.000000pt" height="1024.000000pt" viewBox="0 0 1024.000000 1024.000000"
 preserveAspectRatio="xMidYMid meet">

<g transform="translate(0.000000,1024.000000) scale(0.100000,-0.100000)"
fill="#000000" stroke="none">
<path d="M3460 7327 c-3 -2 -41 -7 -85 -10 -311 -23 -662 -149 -945 -340 -264
-177 -496 -439 -635 -717 -153 -305 -203 -502 -220 -875 -17 -347 82 -733 273
-1065 148 -258 403 -523 647 -671 246 -149 480 -237 760 -285 142 -24 462 -24
605 0 484 82 823 258 1163 601 216 218 401 542 475 830 60 232 71 334 68 600
-2 181 -6 227 -29 335 -63 303 -198 595 -378 817 -292 362 -642 595 -1058 707
-69 19 -170 41 -224 50 -95 16 -407 34 -417 23z m422 -362 c295 -58 570 -196
804 -403 282 -249 474 -596 535 -967 28 -169 23 -424 -11 -580 -48 -220 -131
-421 -242 -586 -82 -122 -131 -188 -140 -188 -4 -1 -19 21 -32 47 -45 88 -95
122 -389 267 -150 73 -292 139 -315 146 -51 15 -86 2 -161 -60 -111 -92 -218
-133 -343 -132 -175 2 -255 32 -386 145 -62 53 -105 65 -159 43 -115 -46 -523
-253 -579 -293 -42 -30 -79 -67 -102 -103 -20 -31 -38 -58 -40 -61 -11 -15
-184 234 -242 351 -45 89 -115 284 -135 379 -35 166 -40 212 -39 375 1 205 20
339 70 484 104 306 273 558 511 764 220 190 457 308 758 376 162 37 440 36
637 -4z m-804 -2407 c12 -13 45 -49 73 -81 102 -112 278 -175 463 -164 181 11
273 54 399 187 66 69 81 80 110 80 43 0 80 -38 80 -80 0 -64 -135 -216 -252
-281 -223 -126 -534 -128 -756 -5 -81 45 -202 161 -234 223 -26 53 -27 83 0
117 27 35 86 36 117 4z"/>
<path d="M3374 6785 c-213 -33 -376 -118 -470 -247 -84 -114 -121 -285 -104
-484 8 -100 35 -241 64 -329 5 -17 0 -23 -26 -30 -78 -23 -97 -115 -53 -254
33 -103 87 -166 158 -184 48 -12 48 -12 72 -80 36 -104 102 -210 180 -291 112
-115 212 -164 357 -173 57 -4 104 -1 135 7 183 49 367 243 435 457 22 69 25
73 58 79 107 20 184 126 204 282 9 69 -18 130 -68 157 l-34 18 14 46 c14 43
26 97 39 166 3 17 9 85 12 151 5 106 3 130 -16 193 -25 81 -85 155 -136 166
-17 4 -35 8 -41 10 -6 2 -14 22 -18 45 -23 147 -209 258 -493 295 -132 17
-160 17 -269 0z"/>
<path d="M4894 7157 c144 -100 360 -306 473 -452 125 -163 249 -387 323 -585
l39 -105 1466 -3 1467 -2 -6 23 c-3 13 -6 165 -6 339 -1 354 -6 395 -67 512
-49 94 -165 212 -252 255 -35 18 -97 41 -139 52 -73 18 -127 19 -1725 19
l-1651 0 78 -53z m780 -389 c50 -71 -40 -139 -93 -72 -25 32 -26 43 -5 72 10
15 25 22 49 22 24 0 39 -7 49 -22z m2710 6 c9 -8 16 -26 16 -40 0 -27 -32 -64
-55 -64 -21 0 -55 36 -55 58 0 50 60 80 94 46z m-2405 -58 c44 -20 48 -41 15
-70 -30 -26 -58 -33 -69 -16 -12 19 -65 11 -90 -15 -37 -36 -35 -105 2 -135
28 -22 55 -23 124 -5 22 6 29 2 47 -28 19 -33 19 -36 3 -51 -72 -65 -193 -48
-266 37 -108 126 2 320 170 299 22 -2 51 -10 64 -16z m135 8 c13 -5 16 -25 16
-118 0 -119 6 -139 49 -149 16 -4 30 1 47 18 22 23 24 31 24 134 0 108 0 111
24 117 13 3 35 4 47 2 24 -3 24 -4 24 -133 -1 -143 -9 -173 -58 -209 -23 -17
-43 -21 -100 -21 -79 0 -114 17 -138 65 -15 32 -21 270 -7 288 11 13 46 16 72
6z m468 -10 c27 -14 29 -19 24 -47 -9 -47 -18 -51 -76 -36 -44 11 -53 11 -60
-1 -12 -19 -6 -23 58 -46 71 -25 97 -54 97 -110 0 -36 -6 -49 -32 -76 -28 -28
-40 -32 -95 -36 -48 -2 -71 1 -98 16 -43 24 -48 43 -20 82 18 26 24 28 42 19
43 -23 76 -28 95 -13 16 12 16 15 3 24 -8 5 -31 14 -50 20 -50 14 -80 38 -97
77 -13 32 -12 38 7 77 11 24 30 48 43 54 34 16 124 14 159 -4z m338 -14 c12
-46 2 -59 -49 -62 l-46 -3 -3 -132 c-3 -131 -3 -133 -27 -139 -13 -3 -33 -3
-44 1 -20 6 -21 14 -21 140 l0 134 -47 3 c-44 3 -48 5 -51 31 -6 53 8 58 152
55 130 -3 130 -3 136 -28z m156 -65 l47 -94 33 82 c41 102 60 117 120 101 18
-5 22 -16 28 -77 4 -40 10 -99 14 -132 3 -33 6 -80 7 -105 0 -43 -1 -45 -30
-48 -16 -1 -36 1 -42 6 -7 4 -18 44 -24 87 -6 44 -12 81 -14 83 -2 2 -17 -38
-35 -87 -29 -80 -36 -91 -57 -91 -17 0 -26 8 -34 28 -5 15 -18 45 -28 67 -10
22 -23 51 -28 65 -9 22 -11 16 -18 -45 -10 -97 -18 -115 -54 -115 -15 0 -33 6
-38 13 -14 17 15 339 30 349 7 4 26 8 44 8 31 0 34 -4 79 -95z m511 83 c5 -7
26 -53 47 -103 21 -49 52 -119 67 -154 16 -35 29 -69 29 -77 0 -14 -62 -30
-79 -19 -6 3 -20 23 -30 43 l-19 37 -59 -3 c-56 -3 -60 -6 -78 -38 -20 -37
-44 -49 -80 -40 -26 7 -44 44 -26 55 6 4 36 70 67 147 31 76 61 145 66 152 6
6 27 12 48 12 21 0 42 -6 47 -12z m383 -38 c0 -42 -11 -50 -66 -50 l-33 0 -3
-132 c-3 -144 -5 -148 -64 -134 -24 6 -24 7 -24 136 l0 129 -57 3 -58 3 -3 42
-3 42 143 3 c79 2 149 1 156 -1 7 -2 12 -19 12 -41z m288 3 c2 -30 -1 -43 -10
-44 -7 -1 -44 -3 -81 -4 -75 -3 -82 -6 -74 -30 5 -11 22 -15 67 -15 l60 0 0
-40 0 -40 -60 0 c-57 0 -60 -1 -60 -25 0 -23 3 -24 78 -27 l77 -3 0 -45 0 -45
-105 -3 c-164 -4 -150 -22 -150 183 l0 174 88 4 c48 2 105 3 127 3 40 -1 40
-1 43 -43z"/>
<path d="M5590 6751 c-15 -30 18 -66 53 -57 48 12 31 76 -20 76 -12 0 -27 -9
-33 -19z m56 -8 c-3 -6 0 -14 7 -17 9 -3 8 -8 -3 -15 -8 -6 -18 -11 -22 -11
-11 0 -30 39 -23 50 8 13 46 8 41 -7z"/>
<path d="M8317 6763 c-10 -9 -9 -51 2 -57 14 -9 22 6 10 20 -6 8 -9 21 -5 29
6 16 3 19 -7 8z"/>
<path d="M8370 6761 c0 -5 5 -13 10 -16 6 -3 10 -2 10 4 0 5 -4 13 -10 16 -5
3 -10 2 -10 -4z"/>
<path d="M8340 6745 c0 -8 2 -15 4 -15 2 0 6 7 10 15 3 8 1 15 -4 15 -6 0 -10
-7 -10 -15z"/>
<path d="M8355 6721 c-6 -11 9 -23 19 -14 9 9 7 23 -3 23 -6 0 -12 -4 -16 -9z"/>
<path d="M7522 6561 c-16 -52 -16 -51 18 -51 17 0 30 3 30 6 0 17 -24 84 -30
84 -4 0 -12 -17 -18 -39z"/>
<path d="M7183 5853 c-777 -2 -1413 -6 -1413 -9 0 -3 6 -32 14 -63 27 -108 39
-280 34 -496 -5 -183 -9 -230 -37 -367 -71 -353 -211 -670 -421 -949 -202
-270 -491 -505 -806 -657 l-99 -47 280 -3 c154 -1 987 -1 1850 0 1495 3 1573
4 1625 21 199 67 346 212 413 407 22 64 22 71 25 813 l3 747 -965 0 -965 0
-20 26 c-34 43 -26 86 20 109 24 13 164 15 979 15 l950 0 0 220 c0 121 1 223
3 228 1 4 -11 7 -28 7 -16 0 -666 -1 -1442 -2z m-403 -166 c52 -26 52 -105 0
-132 -26 -14 -84 -15 -420 -13 -374 3 -390 4 -409 23 -10 11 -22 33 -25 48 -5
23 -1 34 23 57 l29 30 389 0 c291 0 394 -3 413 -13z m1284 -8 c17 -13 26 -30
26 -49 0 -89 -6 -90 -427 -90 -321 0 -362 2 -393 18 -30 14 -35 23 -38 55 -3
41 9 64 43 77 11 5 187 9 391 9 361 1 372 0 398 -20z m-1583 -308 c35 -36 37
-61 5 -98 l-24 -28 -258 1 -258 1 -23 27 c-31 36 -29 62 6 97 l29 29 247 0
247 0 29 -29z m43 -422 c46 -36 31 -106 -28 -129 -36 -13 -424 -13 -463 0 -29
11 -53 45 -53 76 0 9 13 29 29 45 l29 29 230 0 c217 0 231 -1 256 -21z m675 6
c50 -25 55 -73 12 -116 -29 -29 -31 -29 -146 -29 -110 0 -117 1 -140 25 -16
15 -25 36 -25 55 0 19 9 40 25 55 23 24 31 25 135 25 78 0 119 -4 139 -15z
m499 4 c41 -14 61 -61 41 -98 -25 -44 -53 -52 -175 -49 -94 3 -115 6 -133 22
-37 34 -25 98 24 124 26 15 203 15 243 1z m526 -10 c32 -25 36 -79 7 -108 -27
-27 -71 -34 -185 -29 -107 3 -123 12 -133 71 -5 30 -1 40 22 61 27 25 33 26
145 26 104 0 120 -2 144 -21z m-1805 -445 c22 -18 31 -35 31 -55 0 -32 -31
-69 -57 -69 -10 0 -145 -2 -300 -4 -271 -5 -283 -4 -307 15 -37 29 -37 89 0
118 26 20 38 21 315 21 l287 0 31 -26z m895 -14 c120 -46 247 -206 277 -348
32 -154 -73 -368 -224 -456 -113 -67 -294 -75 -408 -19 -353 174 -326 689 43
829 83 32 222 29 312 -6z m583 16 c108 -29 188 -87 255 -184 72 -105 96 -258
60 -379 -31 -102 -108 -205 -192 -258 -125 -78 -329 -73 -453 12 l-38 26 30
31 c79 84 126 223 118 351 -6 102 -34 176 -99 260 -30 39 -47 70 -42 75 17 16
111 60 150 69 59 14 153 12 211 -3z m-1479 -352 c16 -11 22 -24 22 -52 0 -86
-20 -90 -430 -91 -305 -1 -362 5 -380 39 -15 28 -12 76 6 94 30 30 52 32 444
28 253 -3 319 -7 338 -18z m4 -348 c30 -22 40 -63 23 -95 -8 -16 -22 -31 -30
-35 -9 -3 -183 -6 -386 -6 -356 0 -370 1 -389 20 -27 27 -26 77 2 107 l21 23
371 0 c289 -1 375 -4 388 -14z"/>
<path d="M7275 4173 l-99 -103 102 -103 102 -102 61 60 c33 33 78 81 99 106
l39 46 -101 101 c-56 56 -102 101 -102 101 -1 -1 -46 -48 -101 -106z"/>
</g>
</svg>
